/* XPM */
static char *_2d39f002b564803e8fe98622d07985cDoJgmh8EhrncHgOK[] = {
/* columns rows colors chars-per-pixel */
"32 30 6 1 ",
"  c None",
". c #743F39",
"X c #B86F50",
"o c #C28569",
"O c #124E89",
"+ c white",
/* pixels */
"              +++               ",
"               ++               ",
"               .++              ",
"              o.++              ",
"              o.++              ",
"              oo++              ",
"               .++              ",
"               +++              ",
"               ++               ",
"  XXXXXXXX    +++               ",
" X  X  X  X   ++                ",
" XXX.XX.XX.X  +.                ",
" X........oX   .                ",
" XooooooooooXXX.XXXXXXXXX       ",
" Xoooooooooo  X. X  X  XXXXXXX  ",
" XXXXXXXXXXo.o..o.oo.oo.X  X  XX",
" Xoo.oo.oooXo............oo.ooXX",
" XXXXXXXX.ooXXXXXXXXXXXXXXXXXXX ",
" XX.......XXXoXooXooXooXXooXooX ",
" XX.........XXXXXXXXXXXXXXXXXX  ",
" XX.........................X   ",
" XX.........................X   ",
"  X.......................XX    ",
"   .......................O     ",
"   O.....................O      ",
"    O..................OOO      ",
"     OOOOOOOOOOOOOOOOOOOO       ",
"           OOOOOOOO             ",
"      OOO            OOOO       ",
"                                "
};
