/* XPM */
static char *deb117b316064af29eab828a64b91e94uwxrQjOEmOUp2BhV[] = {
/* columns rows colors chars-per-pixel */
"32 32 45 1 ",
"  c None",
". c black",
"X c #030000",
"o c #000107",
"O c #00020A",
"+ c gray3",
"@ c #0C0C0C",
"# c gray5",
"$ c #1D0000",
"% c #101010",
"& c #131313",
"* c gray8",
"= c gray11",
"- c #021125",
"; c #0B1624",
": c #0D1725",
"> c #121E2C",
", c #0C1E37",
"< c #1E2733",
"1 c #13253F",
"2 c #182A41",
"3 c #1B2D47",
"4 c #283241",
"5 c #28364B",
"6 c #303C4D",
"7 c #2A3950",
"8 c #293B54",
"9 c #213D66",
"0 c #354660",
"q c #374966",
"w c #384A63",
"e c #374F76",
"r c #405372",
"t c #4D5F78",
"y c #436296",
"u c #496697",
"i c #597AB3",
"p c #597FC0",
"a c #6D83A7",
"s c #5D90EC",
"d c #6C97E4",
"f c #7BBAFF",
"g c #98BDD9",
"h c #96DEFF",
"j c #D7EFFF",
/* pixels */
"                                ",
"                         XXXX   ",
"                        X    X  ",
"                       X        ",
"                       .        ",
"                        XXX     ",
"                           X    ",
"           ........         X   ",
"         ..<446444<..       X   ",
"        .<<0rrq4<<<<<.     X    ",
"       .<<0iar07<<---<XXXXX     ",
"      .O<5ugi05<<--ww$$.        ",
"     .O><efji05<-3-t8$$:.       ",
"    .%O>5efhi05<-23-t78-:.      ",
"    .%O>5esfd0<<-,13-tw-;.      ",
"   .%o>>9esspr4<<-,13---;:.     ",
"   .*o>>9eessp44<<-,,,->;;.     ",
"   .=o>>29eesy04<<<--->>;;.     ",
"   .=o;>>29eesy54<<<<>>;;;.     ",
"   .*o;;>>299eee555222>;;;.     ",
"   .*O:;>>>2299999922>;;;;.     ",
"   .%=O;;>>>>2222222>;;;;O.     ",
"   .%*O;;;>>>>>>>>>>;;;;;O.     ",
"    .#*O;;;;>>>>>>>;;;;;O.      ",
"    .#@*O;;;;;;;;;;;;;;O#.      ",
"     .@@*O;;;;;;;;;;;;O+.       ",
"      .+#*OO;;;;;;;OOo+.        ",
"       .+#%*OOOOOOo@#+.         ",
"        .+##%**%%@@++.          ",
"         ..#####@@+..           ",
"           ........             ",
"                                "
};
