/* XPM */
static char *ec55e10f14544ec9b204ec21acaf220bUl8qkjr6z9Xz7rK8[] = {
/* columns rows colors chars-per-pixel */
"32 32 12 1 ",
"  c None",
". c gray19",
"X c #603868",
"o c #505060",
"O c #6048A8",
"+ c #E840A0",
"@ c #8870E8",
"# c #F878C8",
"$ c #9090A0",
"% c #B8B0F8",
"& c #D0D0D8",
"* c #F8F8F8",
/* pixels */
"                                ",
"                                ",
"                                ",
"                                ",
"                                ",
"                                ",
"                                ",
"                                ",
"                                ",
"              ....              ",
"            ..%@@@..            ",
"           X#%%%@@@+X           ",
"          X+##%%@@+++X          ",
"          X++#%@@@+++X          ",
"         .@++@@@@@@++@.         ",
"         .@@@@@@@@@@@@.         ",
"         .o@@@@..@@@@o.         ",
"         .&oOO.*&.OOo&.         ",
"          .&$o.&$.o$&.          ",
"          .&&&$..$&&&.          ",
"           .&&&&&&&&.           ",
"            ..&&&&..            ",
"              ....              ",
"                                ",
"                                ",
"                                ",
"                                ",
"                                ",
"                                ",
"                                ",
"                                ",
"                                "
};
