/* XPM */
static char *_8a2461f925f4505c523ff68a64a72f0HjK7Jbs8xetUCmoM[] = {
/* columns rows colors chars-per-pixel */
"32 32 39 1 ",
"  c None",
". c #0B0300",
"X c #0D0500",
"o c #0F0700",
"O c #2F0D00",
"+ c #2B1600",
"@ c #361300",
"# c #3F1600",
"$ c #3F1B00",
"% c #401700",
"& c #4A1F00",
"* c #4F1C00",
"= c #4F1D00",
"- c #5B2900",
"; c #522A0A",
": c #6B3600",
"> c #6A3A00",
", c #7D4D00",
"< c #814800",
"1 c #8B4C05",
"2 c #954F02",
"3 c #A15A02",
"4 c #966600",
"5 c #A76700",
"6 c #AD7009",
"7 c #BC7F0B",
"8 c #C39200",
"9 c #D69613",
"0 c #D8A01A",
"q c #DEAE1F",
"w c #ECB305",
"e c #CA9F2C",
"r c #DBB435",
"t c #F6C533",
"y c #FDE626",
"u c #F9D45B",
"i c #FCE27C",
"p c #FEF383",
"a c #FCEAB1",
/* pixels */
"                                ",
"           oooooooooo           ",
"         ooaaiaiiuuu7oo         ",
"       ooaiu$$$$@@@@uu7oo       ",
"      oaiu$$>qtq884-@@uu3o      ",
"     oiu$$8>a>4--4*0>4@@u3o     ",
"    oiu$q8>aii-ai*au7>84@u3o    ",
"   oiu$q4>auuuiuuiuuu7-84@93o   ",
"   ou$q4>iur>>>>>>>>yu7-84@9.   ",
"  oir$8>pu>>8qqttqq8>>u7-4@92.  ",
"  ou$q4>i>88%58qq85&4:-u*4,@7o  ",
" oar$8>ai>54+++88+++4:-u7-,@72o ",
" oa$84>aia-54+4884+4:-iur-<:O7. ",
" oi@>>>iuia-558++4<:-aure*--O7o ",
" oa$iuriuuia-<<<<::-aiurrr72@7o ",
" oi@>>>i>uui-%&&&&#-iur-r---@7o ",
" ou@---i>7ui-5&84;,-ur2-r***@7o ",
" ou@urri->7ui------ur6--7772@7o ",
" o9@>>>u-t>7uuiiiuu72-<-7---@7. ",
" o9@5q>ui-q>>>7776>>-<-97-5<O7o ",
" o30@5>7ui-qq8>>>>8<<-u72-<@72o ",
"  o9@5q>9ui-*&q84<**-u73-5:O7.  ",
"  o30@5>7u-75<----75<-72-<@72o  ",
"   o9@<5>7u--*aiiu*--w2-<,O7.   ",
"   o39@<5>7uiu7uu7ur72-<:O72o   ",
"    o39@<5-397-77-772-4:O71o    ",
"     o39@@5-3-5--5-2-<@O71o     ",
"      o399@@-:<55<:-@O771o      ",
"       oo399OO@@@@OO772oo       ",
"         o.3777777762o.         ",
"           o.oooooooo           ",
"                                "
};
