/* XPM */
static char *dd54ceb4598f4d84e85e1ed08c3ba1eeA7KihJ7kWHWtpdIg[] = {
/* columns rows colors chars-per-pixel */
"32 32 10 1 ",
"  c None",
". c black",
"X c #282838",
"o c #503868",
"O c #D86060",
"+ c #685080",
"@ c #9078A0",
"# c #989898",
"$ c gray72",
"% c #F8A8A0",
/* pixels */
"                                ",
"                                ",
"                                ",
"                                ",
"                                ",
"                                ",
"              .X                ",
"             .o@X     ..X       ",
"             .+@oX  ..+@X       ",
"           XX.+@+XX.++@.        ",
"       .XX.++++++X.++@+.        ",
"      .oo.++#++++++@@+.         ",
"      .oo++#oOOO++@@@@.         ",
"      .Xo+$$o.%+@@@@@.+X        ",
"       .++##O%++@@@@@+@X        ",
"       .++$$o++@@@@@@@XXX       ",
"       .++##o++@@@@@@@@@X       ",
"       .++$$o++@@@@@@@+X        ",
"       .++##O%++@@@@@@@X        ",
"      .Xo+$$o.%+@@@@@.+X        ",
"      .oo++#oOOO++@@@@.         ",
"      .oo.++#++++++@@+.         ",
"       .XX.o+++++X.++@+.        ",
"           ...+@+XX.++@.        ",
"             .+@oX  ..+@X       ",
"             .o@X     ..X       ",
"              .X                ",
"                                ",
"                                ",
"                                ",
"                                ",
"                                "
};
