/* XPM */
static char *bf762597e72149fdcb3c686e9bc75ae1Xk2XgVrPIDm8awGL[] = {
/* columns rows colors chars-per-pixel */
"32 32 10 1 ",
"  c None",
". c black",
"X c #282838",
"o c #503868",
"O c #D86060",
"+ c #685080",
"@ c #9078A0",
"# c #989898",
"$ c gray72",
"% c #F8A8A0",
/* pixels */
"                                ",
"                                ",
"                                ",
"                                ",
"                                ",
"                                ",
"          ...     ...           ",
"         .ooX.....Xoo.          ",
"         Xooo+++++oooX          ",
"         X.+++++++++.X          ",
"         .++$#$#$#$++.          ",
"        .o+#$#$#$#$#++X         ",
"        .+#ooOoooOoo#+X         ",
"      ...++O.%+++%.O++...       ",
"     .o++++O%+++++%O++++o.      ",
"     X@@@++O++@@@++O++@@@X      ",
"      Xo++++@@@@@@@++++oX       ",
"       XXX++@@@@@@@++XXX        ",
"        X.+@@@@@@@@@+.X         ",
"        .+@@@@@@@@@@@+.         ",
"       .++@@@@@@@@@@@++.        ",
"       .+@+@.@@@@+.@+@+.        ",
"      .+@+..+@+@X@+..+@+.       ",
"      .@..  XXX@XXX  ..@.       ",
"      XX       XX      XX       ",
"                                ",
"                                ",
"                                ",
"                                ",
"                                ",
"                                ",
"                                "
};
