/* XPM */
static char *bf460113de5346f1ab5ae0d10e03116ej4BwkQgKxKdky7Rc[] = {
/* columns rows colors chars-per-pixel */
"32 32 10 1 ",
"  c None",
". c black",
"X c #282838",
"o c #503868",
"O c #D86060",
"+ c #685080",
"@ c #9078A0",
"# c #989898",
"$ c gray72",
"% c #F8A8A0",
/* pixels */
"                                ",
"                                ",
"                                ",
"                                ",
"                                ",
"                X.              ",
"       X..     X@o.             ",
"       X@+..  Xo@+.             ",
"        .@++.XX+@+...           ",
"        .+@++.X+++++o.XX.       ",
"         .+@@++++++#++.oo.      ",
"         .@@@@++OOOo#++oo.      ",
"        X+.@@@@@+%.o$$+oX.      ",
"        X@@@@@@@++%O##++.       ",
"        X+@@@@@@@++o$$++.       ",
"       X@@@@@@@@@++o##++.       ",
"       XXX@@@@@@@++o$$++.       ",
"        X@+@@@@@++%O##++.       ",
"        X+.@@@@@+%.o$$+oX.      ",
"         .@@@@++OOOo#++oo.      ",
"         .+@@++++++#++.oo.      ",
"        .+@++.X++++++.XX.       ",
"        .@++.XX+@+.XX           ",
"       X@+..  Xo@+.             ",
"       X..     X@o.             ",
"                X.              ",
"                                ",
"                                ",
"                                ",
"                                ",
"                                ",
"                                "
};
