/* XPM */
static char *result[] = {
/* columns rows colors chars-per-pixel */
"32 32 17 1 ",
"  c #392918",
". c #331323",
"X c #3C1C2C",
"o c #523929",
"O c #442434",
"+ c #4C2C3C",
"@ c #6B5239",
"# c #543444",
"$ c #5D3D4D",
"% c #624252",
"& c #654555",
"* c #6A4A5A",
"= c #735363",
"- c #84634A",
"; c #8C7352",
": c #9C846B",
"> c None",
/* pixels */
">>>>>>>>>>>>>>>>>>>>>>>>>>>>>>>>",
">>>>>>>>>>>>>>>>>>>>>>>>>>>>>>>>",
">>>>>>>>>>>>>>>$$$$$$>>>>>>>>>>>",
">>>>>>$$$oo>>$%%====%oo>>>>>>>>>",
">>>>$*==o::o$$***===o::o$$>>>>>>",
">>>$====o::o$$***===o::o==%$>>>>",
">>>$====o;;o$$****==o;;o===*$>>>",
">>>$$===o;-o@@@@@@@@o;-o===*$>>>",
">>$**%%=o--o-::::::-o--o=*%$>>>>",
">$=***%#o--o-;;;;;;-o--o%$$$>>>>",
">$===*%#o--o%%##%%%%o--o%%$*$>>>",
">$====##o--o##+###%%o--o%%==*&>>",
">>====##o-@o##O#####o-@o%#===$>>",
">>%==%##o-@o#+O+####o-@o##===$>>",
">>$$%%#+o@@o-;;;;;;-o@@o##*==$>>",
">$%=*&+O @@ @------@ @@ O+*==&>>",
">$%===OO @@ @------@ @@ OO**$$>>",
">>*===XX @@ XXXXOOOX @@ OX$$$>>>",
">>&===XX @@ XXXXXXXX @@ XX&>>>>>",
">>$==*XX @@ ..X....X @@ .X$>>>>>",
">>$%**%. @@ ........ @@ .*$$>>>>",
">>>$%%$. @@ ........ @@ .==*$>>>",
">>>>$$== @@ @------@ @@ ====%>>>",
">>>>$*===%@ @@@@@@@@ @*=====%>>>",
">>>$$=====&$%**=====%$=====%>>>>",
">>>$%=====%$*========$$*==$>>>>>",
">>>>$&*==*$$$=======*$$$%$>>>>>>",
">>>>>*&%$$>>>%*====%$>>>>>>>>>>>",
">>>>>>>>>>>>>>>>&&&>>>>>>>>>>>>>",
">>>>>>>>>>>>>>>>>>>>>>>>>>>>>>>>",
">>>>>>>>>>>>>>>>>>>>>>>>>>>>>>>>",
">>>>>>>>>>>>>>>>>>>>>>>>>>>>>>>>"
};
