/* XPM */
static char *bf5c9ee17f2a4231ae79b27e6a2718450xXOfk9UQkJtiQls[] = {
/* columns rows colors chars-per-pixel */
"32 32 4 1 ",
"  c #2F2E2F",
". c #39314B",
"X c #3E2F5A",
"o c #564064",
/* pixels */
"                                ",
"  oooooooooooo   oooooooooooooo ",
" ooooooXooooooo ooooooXoooXooooo",
" oXXoXXXXoXXXoo ooXXoXXXoXXXXXXo",
" XXXXXX.XXXX..o o..XXXXXXXXXX.XX",
" .............. ......XX........",
"  ............   .............. ",
"                                ",
"ooooo   ooooooooooooooo   oooooo",
"Xooooo ooooooooooXXooooo ooooooX",
"XXoXoo ooXXoXXXoXXXXoXoo ooXoXXX",
".XXX.o o.XXXX.XXX...XX.o o.XXXX.",
"XXX... ...XX...XXXXXX... ...XX..",
"...... ...........XX.... .......",
".....   ...............   ......",
"                                ",
"oooooooooooo   oooooooooooo   oo",
"XooooooooXooo ooooooXooooooo ooo",
"XXXoXXXoXXXoo ooXXoXXXXoXXoo ooX",
"XXXXXXX.XXXXo oXXXXX.XX.XXXo oXX",
"XXXX..XX.XXX. .XXXX..XXX.XX. .XX",
"XXX..XXX..X.. ..X...XX.XXX.. ..X",
"X.....X...... ..........X... ...",
"............   ............   ..",
"                                ",
"ooooooo   oooooooooooo   ooooooo",
"Xooooooo ooooooXoooXooo oooooooo",
"XXXoXXoo ooXXoXXXoXXXoo ooXXoXXX",
".X.XXX.o o.XXXXXX.XXX.o o.XXXXXX",
".XXXX... ...X..XXXXX... ...XXXX.",
"...X.... .........X.... ....X...",
".......   ............   ......."
};
