/* XPM */
static char *_fb992adcde24fbebd143b069cab8b4dY7y3Crwf71tC5oIe[] = {
/* columns rows colors chars-per-pixel */
"32 32 5 1 ",
"  c #2F2E2F",
". c #564064",
"X c #3E2F5A",
"o c #39314B",
"O c white",
/* pixels */
"                                ",
"............   ..............   ",
".....X....... ......X...X..... .",
"XX.XXXX.XXX.. ..XX.XXX.XXXXXX. .",
"XXXXXoXXXXoo. .ooXXXXXXXXXXoXX X",
"ooooooooooooo ooooooXXoooooooo o",
"oooooooooooo   oooooooooooooo   ",
"                                ",
"...   ...............   ........",
".... ..........XX..... ......XX.",
".X.. ..XX.XXX.XXXX.X.. ..X.XXXXX",
"XXo. .oXXXXoXXXoooXXo. .oXXXXooX",
"Xooo oooXXoooXXXXXXooo oooXXooXX",
"oooo oooooooooooXXoooo ooooooooo",
"ooo   ooooooooooooooo   oooooooo",
"                                ",
"..........   ............   ....",
".......X... ......X....... ...X.",
"X.XXX.XXX.. ..XX.XXXX.XX.. ..XXX",
"XXXXXoXXXX. .XXXXXoXXoXXX. .XXoX",
"XXooXXoXXXo oXXXXooXXXoXXo oXXXo",
"XooXXXooXoo ooXoooXXoXXXoo ooXXX",
"ooooXoooooo ooooooooooXooo oooXo",
"oooooooooo   oooooooooooo   oooo",
"                                ",
".....   ............   .........",
"...... ......X...X... ........X.",
"X.XX.. ..XX.XXX.XXX.. ..XX.XXXXX",
"oXXXo. .oXXXXXXoXXXo. .oXXXXXXoX",
"XXXooo oooXooXXXXXooo oooXXXXooX",
"oXoooo oooooooooXoooo ooooXooooo",
"ooooo   oooooooooooo   ooooooooo"
};
