/* XPM */
static char *result[] = {
/* columns rows colors chars-per-pixel */
"32 32 6 1 ",
"  c black",
". c #282838",
"X c #503868",
"o c #685080",
"O c #9078A0",
"+ c None",
/* pixels */
"++++++++++++++++++++++++++++++++",
"++++++++++++++++++++++++++++++++",
"++++++++++++++++++++++++++++++++",
"++++++++++++++++++++++++++++++++",
"++++++++++++++++++++++++++++++++",
"++++++++++++++++++++++++++++++++",
"+++++++..+++++++..++++++..++++++",
"+++++++ O  ++...O...++  O ++++++",
"+++++++ OOo  oOoO.Oo  oOO ++++++",
"++++++++ OOoO OOOOo OoOO +++++++",
"++++++++ oOOOOOOOOOOOOOo +++++++",
"+++++++++ oOOOOOOOOOOOo ++++++++",
"+++++++++. oOOOOOOOOOo .++++++++",
"+++++++++..ooOOoOoOOoo..++++++++",
"++++++++.oooXOoXOXoOXooo.+++++++",
"+++++++.OOoooXooXooXoooOO.++++++",
"++++++.OOoXoXOooOooOXoXoOO.+++++",
"++++++ oo XoXXoXOXoXXoX oo +++++",
"+++++++  .XooXXoXoXXooX.  ++++++",
"+++++++++.XXoXo  XoXoXX.++++++++",
"++++++++++XXXXX o XXXX +++++++++",
"++++++++++. XX.ooo.XX .+++++++++",
"++++++++++.XX. ooo .XX.+++++++++",
"++++++++++ XXX.   .XXX +++++++++",
"+++++++++++   +++++   ++++++++++",
"++++++++++++++++++++++++++++++++",
"++++++++++++++++++++++++++++++++",
"++++++++++++++++++++++++++++++++",
"++++++++++++++++++++++++++++++++",
"++++++++++++++++++++++++++++++++",
"++++++++++++++++++++++++++++++++",
"++++++++++++++++++++++++++++++++"
};
