/* XPM */
static char *result[] = {
/* columns rows colors chars-per-pixel */
"32 32 11 1 ",
"  c black",
". c #282838",
"X c #503868",
"o c #606060",
"O c #D86060",
"+ c #685080",
"@ c #9078A0",
"# c #989898",
"$ c gray72",
"% c #F8A8A0",
"& c None",
/* pixels */
"&&&&&&&&&&&&&&&&&&&&&&&&&&&&&&&&",
"&&&&&&&&&&&&&&&&&&&&&&&&&&&&&&&&",
"&&&&&&&&&&&&&&&&&&&&&&&&&&&&&&&&",
"&&&&&&&&&&&&&&&&&&&&&&&&&&&&&&&&",
"&&&&&&&&&&&&&&&&&&&&&&&&&&&&&&&&",
"&&&&&&&&&&&&&&&&&&&&&&&&&&&&&&&&",
"&&&&&&&&&&&..&&&&&&&&&&&&&&&&&&&",
"&&&&&&&&&&&.+..&&&&&&&&&&&&&&&&&",
"&&&&&&&&&&&.XXXX...&&&&&&&&&&&&&",
"&&&&&&&&&&&&.XX..@...&&&&&&&&&&&",
"&&&&&&&&&&&.   X+@.@.&&&&&&&&&&&",
"&&&&&&&&&&.X @@ .+++@ &&&&&&&&&&",
"&&&&&&&&&.XX X@@@.X@@@ &&&&&&&&&",
"&&&&&&&&..XX. +@@@@@@@ &&&&&&&&&",
"&&&&&&&&.XXXX X+@@@@@@+ &&&&&&&&",
"&&&&&&&&&..XX..X++@@@++ &&&&&&&&",
"&&&&&&&&..XX+X+++++++++ &&&&&&&&",
"&&&&&&&&.XXXX+++++O%+++ &&&&&&&&",
"&&&&&&&&&.XX+X++++OO +#.&&&&&&&&",
"&&&&&&&&.XXXX.@@X++O.$o&&&&&&&&&",
"&&&&&&&&..XXX @@@.#$#$ &&&&&&&&&",
"&&&&&&&  XXXX +@ .#$# &&&&&&&&&&",
"&&&&&&& XXXXXX  .++X.&&&&&&&&&&&",
"&&&&&&&& ...X.X++...&&&&&&&&&&&&",
"&&&&&&&&&&&&. XXX &&&&&&&&&&&&&&",
"&&&&&&&&&&&&&&   &&&&&&&&&&&&&&&",
"&&&&&&&&&&&&&&&&&&&&&&&&&&&&&&&&",
"&&&&&&&&&&&&&&&&&&&&&&&&&&&&&&&&",
"&&&&&&&&&&&&&&&&&&&&&&&&&&&&&&&&",
"&&&&&&&&&&&&&&&&&&&&&&&&&&&&&&&&",
"&&&&&&&&&&&&&&&&&&&&&&&&&&&&&&&&",
"&&&&&&&&&&&&&&&&&&&&&&&&&&&&&&&&"
};
