/* XPM */
static char *result[] = {
/* columns rows colors chars-per-pixel */
"32 32 10 1 ",
"  c black",
". c #282838",
"X c #503868",
"o c #D86060",
"O c #685080",
"+ c #9078A0",
"@ c #989898",
"# c gray72",
"$ c #F8A8A0",
"% c None",
/* pixels */
"%%%%%%%%%%%%%%%%%%%%%%%%%%%%%%%%",
"%%%%%%%%%%%%%%%%%%%%%%%%%%%%%%%%",
"%%%%%%%%%%%%%%%%%%%%%%%%%%%%%%%%",
"%%%%%%%%%%%%%%%%%%%%%%%%%%%%%%%%",
"%%%%%%%%%%%%%%%%%%%%%%%%%%%%%%%%",
"%%%%%%%%%%%%%%%%%%%%%%%%%%%%%%%%",
"%%%%%%%%%%%%%%%%%%%%%%%%%%%%%%%%",
"%%%%%%%..%%%%%%..%%%%%%%..%%%%%%",
"%%%%%%% +  %%...+...%%  + %%%%%%",
"%%%%%%% O+O  O+.+O+O  O+O %%%%%%",
"%%%%%%%% O+O+ O++++ +O+O %%%%%%%",
"%%%%%%%% OO+++++++++++OO %%%%%%%",
"%%%%%%%%% O+++++++++++O %%%%%%%%",
"%%%%%%%%%. O+++++++++O .%%%%%%%%",
"%%%%%%%%...OO+++++++OO...%%%%%%%",
"%%%%%%%.XOOOO+++++++OOOOX.%%%%%%",
"%%%%%%.+++OOoOO+++OOoOO+++.%%%%%",
"%%%%%% XOOOOo$OOOOO$oOOOOX %%%%%",
"%%%%%%%   OOo $OOO$ oOO   %%%%%%",
"%%%%%%%%%.O@XXoXXXoXX@O %%%%%%%%",
"%%%%%%%%%.OO@#@#@#@#@OX %%%%%%%%",
"%%%%%%%%%% OO#@#@#@#OO %%%%%%%%%",
"%%%%%%%%%%. OOOOOOOOO .%%%%%%%%%",
"%%%%%%%%%%.XXXOOOOOXXX.%%%%%%%%%",
"%%%%%%%%%% XX.     .XX %%%%%%%%%",
"%%%%%%%%%%%   %%%%%   %%%%%%%%%%",
"%%%%%%%%%%%%%%%%%%%%%%%%%%%%%%%%",
"%%%%%%%%%%%%%%%%%%%%%%%%%%%%%%%%",
"%%%%%%%%%%%%%%%%%%%%%%%%%%%%%%%%",
"%%%%%%%%%%%%%%%%%%%%%%%%%%%%%%%%",
"%%%%%%%%%%%%%%%%%%%%%%%%%%%%%%%%",
"%%%%%%%%%%%%%%%%%%%%%%%%%%%%%%%%"
};
