/* XPM */
static char *result[] = {
/* columns rows colors chars-per-pixel */
"32 32 227 2 ",
"   c black",
".  c #0A0907",
"X  c #14110F",
"o  c #0E1010",
"O  c #0F1111",
"+  c #0E1113",
"@  c #101313",
"#  c #111313",
"$  c #141413",
"%  c #121515",
"&  c #141718",
"*  c #151818",
"=  c #161818",
"-  c #161919",
";  c #181818",
":  c #181B1B",
">  c #181C1C",
",  c #1B1E1F",
"<  c #221D19",
"1  c #1A1F21",
"2  c #1C2122",
"3  c #1E2323",
"4  c #1F2323",
"5  c #1F2526",
"6  c #202525",
"7  c #212526",
"8  c #232828",
"9  c #242828",
"0  c #242929",
"q  c #242A2B",
"w  c #262B2B",
"e  c #272B2B",
"r  c #262B2C",
"t  c #272C2C",
"y  c #272D2F",
"u  c #292D2D",
"i  c #282E2E",
"p  c #292E2E",
"a  c #2A2F2F",
"s  c #3C352B",
"d  c #2B3030",
"f  c #2A3032",
"g  c #2B3132",
"h  c #2A3033",
"j  c #2A3133",
"k  c #2E3030",
"l  c #2E3334",
"z  c #303636",
"x  c #313737",
"c  c #303739",
"v  c #323838",
"b  c #323939",
"n  c #32393A",
"m  c #343A3A",
"M  c #353B3C",
"N  c #353C3C",
"B  c #353C3D",
"V  c #363D3D",
"C  c #373F3F",
"Z  c #383B39",
"A  c #383F3F",
"S  c #393F3F",
"D  c #413733",
"F  c #4C3E35",
"G  c #584738",
"H  c #363D40",
"J  c #363E40",
"K  c #383F42",
"L  c #384040",
"P  c #394141",
"I  c #3A4141",
"U  c #3B4141",
"Y  c #3A4242",
"T  c #3B4242",
"R  c #3C4343",
"E  c #384145",
"W  c #384146",
"Q  c #3C4444",
"!  c #3D4444",
"~  c #3E4545",
"^  c #3F4545",
"/  c #3C4446",
"(  c #3E4646",
")  c #3F4646",
"_  c #3F4747",
"`  c #3A4448",
"'  c #414645",
"]  c #404747",
"[  c #404847",
"{  c #404848",
"}  c #414949",
"|  c #424949",
" . c #41494A",
".. c #424A4A",
"X. c #434A4A",
"o. c #434B4B",
"O. c #444B4B",
"+. c #424B4D",
"@. c #434C4C",
"#. c #444C4C",
"$. c #454D4D",
"%. c #444D4F",
"&. c #464E4E",
"*. c #474E4F",
"=. c #474F4F",
"-. c #484F4F",
";. c #594F49",
":. c #50504C",
">. c #5E564C",
",. c #434D51",
"<. c #424D52",
"1. c #444E50",
"2. c #454F50",
"3. c #465155",
"4. c #455156",
"5. c #485050",
"6. c #495151",
"7. c #485153",
"8. c #495153",
"9. c #495252",
"0. c #4A5252",
"q. c #4A5253",
"w. c #4A5354",
"e. c #4B5454",
"r. c #4F5555",
"t. c #485358",
"y. c #4B5658",
"u. c #49555B",
"i. c #4C5659",
"p. c #4D5759",
"a. c #4E5758",
"s. c #4C585D",
"d. c #50595C",
"f. c #525D5D",
"g. c #675E50",
"h. c #6D5E54",
"j. c #676259",
"k. c #766552",
"l. c #515E63",
"z. c #545F63",
"x. c #525F64",
"c. c #525F65",
"v. c #6C5F69",
"b. c #546064",
"n. c #5C6264",
"m. c #536168",
"M. c #546268",
"N. c #566368",
"B. c #55646B",
"V. c #57656C",
"C. c #57666D",
"Z. c #5A686D",
"A. c #59686F",
"S. c #5E6C6D",
"D. c #596870",
"F. c #5A6970",
"G. c #5B6A72",
"H. c #5C6B72",
"J. c #5E6E76",
"K. c #5F6F77",
"L. c #656C6F",
"P. c #6A6E6E",
"I. c #776C74",
"U. c #607078",
"Y. c #617179",
"T. c #66737A",
"R. c #6B777B",
"E. c #6B7C7B",
"W. c #727F76",
"Q. c #72757B",
"!. c #846F5C",
"~. c #895C7F",
"^. c #857067",
"/. c #8D7362",
"(. c #8A7560",
"). c #8E7560",
"_. c #9C7F6B",
"`. c #9E7E6E",
"'. c #9A6D72",
"]. c #9B657B",
"[. c #9B836D",
"{. c #878174",
"}. c #86937D",
"|. c #9F9E77",
" X c #A4846C",
".X c #A5896D",
"XX c #A78873",
"oX c #A48B75",
"OX c #AC907B",
"+X c #AD917C",
"@X c #AD967D",
"#X c #B29477",
"$X c #B5967A",
"%X c #B2957D",
"&X c #B89778",
"*X c #B7997C",
"=X c #7A8386",
"-X c #7F8684",
";X c #948D88",
":X c #888F95",
">X c #919C9F",
",X c #B69782",
"<X c #B29A86",
"1X c #B19E8F",
"2X c #BAA183",
"3X c #9099A0",
"4X c #96A1A7",
"5X c #9DA2A7",
"6X c #9CA4AC",
"7X c #91B8A4",
"8X c #A1A5AB",
"9X c #A3ACB3",
"0X c #ACB1B4",
"qX c #ACB3B8",
"wX c #C9B092",
"eX c #CEB69D",
"rX c #CFB79D",
"tX c #D0B8A2",
"yX c #D2BAA3",
"uX c #D4BDAD",
"iX c #AFD097",
"pX c #D7C1B0",
"aX c #DEC5B2",
"sX c #B3B9C0",
"dX c #DFE1E4",
"fX c #F1F1F3",
"gX c None",
/* pixels */
"gXgXgXgXgXgXgXgXgXgXgXgXgXgXgXgXK 7.& gXgXgXgXgXgXgXgXgXgXgXgXgX",
"gXgXgXgXgXgXgXgXgXgXgXgXgXgXgXu.A.M.1   gXgXgXgXgXgXgXgXgXgXgXgX",
"gXgXgXgXgXgXgXgXgXgXgXgXgXgX^.;XP.{.g..   gXgXgXgXgXgXgXgXgXgXgX",
"gXgXgXgXgXgXgXgXgXgXgXgXgXgXgXaXpXwX2Xs   gXgXgXgXgXgXgXgXgXgXgX",
"gXgXgXgXgXgXgXgXgXgXgXgXgXgXXX1XyXoX<X(.F gXgXgXgXgXgXgXgXgXgXgX",
"gXgXgXgXgXgXgXgXgXgXgXgXgXgX`.uXeXtXrX#X_.gXgXgXgXgXgXgXgXgXgXgX",
"gXgXgXgXgXgXgXgX'.].gXgXgXgXgX,X$X*X.XG gXgXgXgXgXgXgXgXgXgXgXgX",
"gXgXgXgXgXgXgXQ.I.~.gXgXgXgXgX;.[.@Xj.r gXgXgXgXgXgXgXgXgXgXgXgX",
"gXgXgXgXgXgXgX3X8Xv.gXgXgXgXt.s.=X>XR.9.! u gXgXgXgXgXgXgXgXgXgX",
"gXgXgXgXgXgXgXgXgXgXgXgXgXJ A.T.sX9Xa.=.=.{ v gXgXgXgXgXgXgXgXgX",
"gXgXgXgXgXgXgXgXgXgXgXgXgXW K.4XfX0Xd.w.#.{ ] * gXgXgXgXgXgXgXgX",
"gXgXgXgXgXgXgXgXgXgXgXgXgXE J.qXdX-X|.}.%.#.-.e gXgXgXgXgXgXgXgX",
"gXgXgXgXgXgX&X%Xh.gXgXgXgXn B.6X5XW.iX7X8...6.m gXgXgXgXgXgXgXgX",
"gXgXgXgXgXgX XOX+X!.< + t a 1.:XL.f.E.S.5.x O.[ = gXgXgXgXgXgXgX",
"gXgXgXgXgXgXgX/.k.).D 4.+.0 ~ n.0.=.*.=.A gXQ &.t gXgXgXgXgXgXgX",
"gXgXgXgXgXgXgXgX; X k  .! w X.( $.5.5.6.a c x.y.e gXgXgXgXgXgXgX",
"gXgXgXgXgXgXgXgXgXgXO gX# z 6._ $.5.=.) B c.Z./ gXgXgXgXgXgXgXgX",
"gXgXgXgXgXgXgXgXgXgXgXgXgXI } Y _ { ..Z :.N.#.4 gXgXgXgXgXgXgXgX",
"gXgXgXgXgXgXgXgXgXgXgXgX* ~ { L } $.w.r.>.' 9 gXgXgXgXgXgXgXgXgX",
"gXgXgXgXgXgXgXgXgXgXgXgXe 5.$._ e.b.H.F.S $ gXgXgXgXgXgXgXgXgXgX",
"gXgXgXgXgXgXgXgXgXgXgXgXu 5.5.T ,.Y.U.U.<.gXgXgXgXgXgXgXgXgXgXgX",
"gXgXgXgXgXgXgXgXgXgXgXgXg p.6.| H G.U.Y.C.j gXgXgXgXgXgXgXgXgXgX",
"gXgXgXgXgXgXgXgXgXgXgXgXc z.0.=.M B.Y.Y.V.f gXgXgXgXgXgXgXgXgXgX",
"gXgXgXgXgXgXgXgXgXgXgXgXy i.q.] : ` D.K.m.gXgXgXgXgXgXgXgXgXgXgX",
"gXgXgXgXgXgXgXgXgXgXgXgXgXC 6.^ gXgX3.l.x.7 gXgXgXgXgXgXgXgXgXgX",
"gXgXgXgXgXgXgXgXgXgXgXgXo N 5.) gXgXl 2.@.p gXgXgXgXgXgXgXgXgXgX",
"gXgXgXgXgXgXgXgXgXgXgXgXgXN &.m gXgXa ) &.R gXgXgXgXgXgXgXgXgXgX",
"gXgXgXgXgXgXgXgXgXgXgXgX8 Y o.d gXgXgX~ $.) # gXgXgXgXgXgXgXgXgX",
"gXgXgXgXgXgXgXgXgXgXgXgX9 { P 3 gXgX4 ] { R # gXgXgXgXgXgXgXgXgX",
"gXgXgXgXgXgXgXgXgXgXgXgXh i i - gXgX# U V b # gXgXgXgXgXgXgXgXgX",
"gXgXgXgXgXgXgXgXgXgXgXgX5 > gXgXgXgXgX, q 6 gXgXgXgXgXgXgXgXgXgX",
"gXgXgXgXgXgXgXgXgXgXgXgXgXgXgXgXgXgXgX@ 2 % gXgXgXgXgXgXgXgXgXgX"
};
