/* XPM */
static char *result[] = {
/* columns rows colors chars-per-pixel */
"33 32 28 1 ",
"  c black",
". c #000100",
"X c #030000",
"o c #000201",
"O c #000002",
"+ c #000102",
"@ c #030002",
"# c #010302",
"$ c #000004",
"% c #000104",
"& c #000005",
"* c #331300",
"= c gray13",
"- c #630000",
"; c #7F0000",
": c #563120",
"> c #5B7F00",
", c #7A462E",
"< c #AD4500",
"1 c #D3AC00",
"2 c #FFD800",
"3 c #F7946A",
"4 c #FF996D",
"5 c #808080",
"6 c #EAEAEA",
"7 c gray95",
"8 c white",
"9 c None",
/* pixels */
"999999999999999999999999999999999",
"999999999999999999999999999999999",
"999999999999999999999999999999999",
"999999999999999999999999999999999",
"999999999999999999999999999999999",
"999999999999999999999999999999999",
"999999999999999999999999999999999",
"999999999999999999999999999999999",
"999999999999999999999999999999999",
"999999999999        9999999999999",
"99999999999   8888   999999999999",
"9999999999    8=8=    99999999999",
"999999999     7887     9999999999",
"99999999       77       999999999",
"9999999       7  7       99999999",
"999999                    9999999",
"999999                    9999999",
"999999999 3333 333 333 9999999999",
"999999999 3443 443 444 9999999999",
"999999999 344554445444X   9999999",
"999999999 <<<<<<<<<<<<. > 9999999",
"999999999 <<<<<<  <<< >>8>2999999",
"9999999999 <<<<<<<<<<>>  >9999999",
"9999999999  <<<<<<<< 22   9999999",
"999999999 -X-<<<<<<<O-+ >> 999999",
"999999999 ; --<<<<<-o;@9  9999999",
"999999999 3 ;;-<6;--$3@9999999999",
"999999999 3 ;;;66;;; 3 9999999999",
"9999999999  ;;:11:;;  99999999999",
"999999999999*9&&,:;; 999999999999",
"999999999999*999&:;;%999999999999",
"999999999999*9999 XX#999999999999"
};
