/* XPM */
static char *result[] = {
/* columns rows colors chars-per-pixel */
"32 32 12 1 ",
"  c #261209",
". c #3F1F0F",
"X c #505060",
"o c #F04028",
"O c #D01058",
"+ c #CB2449",
"@ c #EF7F96",
"# c #9090A0",
"$ c #F08888",
"% c #D0D0D8",
"& c #FDE7EB",
"* c None",
/* pixels */
"********************************",
"********************************",
"********************************",
"********************************",
"********************************",
"********************************",
"********************************",
"********************************",
"********************************",
"**********....******************",
"********..$$$o..****************",
"*******.o$$$$$oo.***************",
"******.ooo$$$oooo.**************",
"******.oooo$ooooo.**************",
"*****.oooooooooooX.*************",
"*****.ooooooooooX% *************",
"*****.ooooo..oOO#% *************",
"***** oooo.@&.X#%% *************",
"****** OOOX.@+.%% **************",
"****** XXX#%..%%% **************",
"******* %%%%%%%% ***************",
"********  %%%%  ****************",
"**********    ******************",
"********************************",
"********************************",
"********************************",
"********************************",
"********************************",
"********************************",
"********************************",
"********************************",
"********************************"
};
